<?xml version="1.0" encoding="utf-8"?>
<!-- Generator: Adobe Illustrator 25.4.4, SVG Export Plug-In . SVG Version: 6.00 Build 0)  -->
<svg version="1.1" id="Layer_1" xmlns="http://www.w3.org/2000/svg" xmlns:xlink="http://www.w3.org/1999/xlink" x="0px" y="0px"
	 viewBox="0 0 612 612" style="enable-background:new 0 0 612 612;" xml:space="preserve">
<style type="text/css">
	.st0{fill:#0068FF;}
</style>
<path class="st0" d="M305.96,573.23c-20.54-16.88-41.16-33.29-61.18-50.39c-38.62-32.99-77.35-65.88-115.21-99.74
	c-32.99-29.51-63.95-61.12-89.4-97.63C22.08,299.52,8.63,271.49,3.33,240c-7.61-45.12-3.01-88.24,22.61-127.3
	c25.41-38.74,61.05-63.09,106.84-71.04C191.54,31.47,241.9,48.94,284.63,90c7.37,7.08,15.4,13.47,23.12,20.18
	c-0.48,0.66-0.95,1.31-1.43,1.97c2.66-2.87,5.32-5.74,7.99-8.61c21.12-22.76,44.55-42.43,74.02-53.55
	c75.68-28.55,162.22-1.97,203.52,72.06c16.46,29.5,21.76,61.32,19.76,94.84c-2.99,50.11-24.75,91.94-55.71,129.98
	c-25.51,31.33-54.42,59.32-84.21,86.45c-53.06,48.33-108.93,93.35-164.25,139.02C307.1,572.61,306.69,572.79,305.96,573.23z
	 M306.02,166.44c-0.85-0.95-1.34-1.49-1.83-2.02c-14.93-16.49-29.07-33.79-44.96-49.29c-31.27-30.51-69.04-44.7-112.86-39.1
	c-45.57,5.83-78.72,30.12-98.49,71.44c-16.39,34.25-14.65,69.91-4.13,105.39c8.07,27.22,23.43,50.57,41.11,72.44
	c25.58,31.66,54.67,59.98,85.37,86.52c43.86,37.91,88.53,74.88,132.79,112.33c2.42,2.05,3.9,1.91,6.28-0.08
	c19.01-15.84,38.21-31.44,57.21-47.28c43.31-36.11,86.33-72.56,125.93-112.8c23.98-24.37,46.5-49.95,62.91-80.27
	c17.16-31.72,24.59-65.72,19.22-101.3c-13.2-87.56-103.24-130.28-180.96-95.57c-23.63,10.55-42.09,27.87-59.11,46.84
	C324.94,144.34,315.7,155.29,306.02,166.44z"/>
</svg>
