<?xml version="1.0" encoding="utf-8"?>
<!-- Generator: Adobe Illustrator 25.4.4, SVG Export Plug-In . SVG Version: 6.00 Build 0)  -->
<svg version="1.1" id="Layer_1" xmlns="http://www.w3.org/2000/svg" xmlns:xlink="http://www.w3.org/1999/xlink" x="0px" y="0px"
	 viewBox="0 0 612 612" style="enable-background:new 0 0 612 612;" xml:space="preserve">
<style type="text/css">
	.st0{fill:#0068FF;}
</style>
<path class="st0" d="M306.4,21C463.5,21.1,591,148.9,591,306.1c0,157.8-128.2,285.4-286.3,284.9C147.8,590.5,20.7,462.4,21,305.1
	C21.3,147.9,148.9,20.9,306.4,21z M307.5,59C171.2,58.6,59.7,168.7,59,304.2C58.3,440.4,168.4,552.3,303.7,553
	c136.9,0.7,248.8-109.8,249.3-246C553.5,171,442.9,59.4,307.5,59z"/>
<path class="st0" d="M306.2,478.6c-49.9-1.3-93-18.2-129.3-51.8c-12.3-11.4-14.2-22.7-5.1-31.1c11-10.3,20.5-5.9,30.4,2.9
	c62.1,55.1,143,55.6,206.4,1.5c1.6-1.4,3.1-2.9,4.8-4.1c9.9-6.9,20-7.9,28.1,1.9c7.6,9.3,5.2,18.5-3.2,26.6
	C401.3,460.4,356.9,477.6,306.2,478.6z"/>
<path class="st0" d="M240.6,232.5c0.1,20.7-17.6,38.4-38.2,38.3c-20.7-0.2-38-18-37.7-38.7c0.3-20.4,16.8-36.8,37.4-37
	C223.4,194.8,240.6,211.5,240.6,232.5z"/>
<path class="st0" d="M447.3,234.2c-0.2,21-17.5,37.7-38.7,37.4c-20.5-0.3-37-16.8-37.2-37.2c-0.2-20.8,17.2-38.5,37.9-38.6
	C429.9,195.8,447.5,213.5,447.3,234.2z"/>
</svg>
